<?xml version="1.0" encoding="UTF-8"?><svg id="Layer_1" xmlns="http://www.w3.org/2000/svg" viewBox="0 0 756.99 500"><defs><style>.cls-1{stroke-width:0px;}</style></defs><path class="cls-1" d="m283.88,2.69c-28.76,4.61-57.08,7.68-85.83,12.82-44.06,7.95-94.98,14.77-142.31-4.79v405.45c17.89,14.26,52.97,17.58,79.92,15.89,48.13-3.85,95.15-14.25,143.21-19.22,31.84-4.17,62.82-6.34,90.83,16.34V27.07c-23.28-30.1-55.01-29.51-85.82-24.37Z"/><path class="cls-1" d="m558.94,15.51c-28.75-5.14-57.07-8.21-85.82-12.82-30.84-5.12-62.56-5.72-85.83,24.37v402.11c27.92-22.67,58.98-20.52,90.84-16.34,48.06,4.97,95.07,15.38,143.2,19.22,26.91,1.69,62-1.64,79.91-15.89V10.72c-47.32,19.55-98.23,12.73-142.3,4.79Z"/><path class="cls-1" d="m378.26,500c22.32.08,38.26-5.9,43.5-8.09,0,0,0-28.02,0-28.02,17.83,2.51,104.35,13.86,195.89,14.61,58.84,0,120.75-8.22,139.34-10.9V60.42c-10.12-2.12-28.65-6.22-38.18-8.34,0,.07.12,370-.1,370.04-.3.52-7.49,12.73-24.13,18.18-42.56,14.17-74.3,9.94-107.9,5.44-29.97-4-57.29-7.78-83.66-11.56-39.64-5.28-88.19-18.66-116,19.91,0,0-.37.6-.37.6l-2.75-1.58h-10.83l-2.75,1.58-.37-.6c-6.81-11.13-17.84-17.37-25.89-20.65-28.83-11.3-60.27-3.37-90.12.74-26.28,3.77-53.6,7.55-83.51,11.55-33.74,4.5-65.48,8.75-108.05-5.43-16.63-5.44-23.82-17.66-24.12-18.17-.28-.11,0-369.86-.1-370.04-9.52,2.1-28.1,6.19-38.18,8.34,0,0,0,407.18,0,407.18,18.58,2.68,80.5,10.9,139.34,10.9,93.6-.73,184.37-13.03,195.88-14.61v28.03c5.42,2.19,20.42,8.01,43.04,8.09Z"/></svg>