<?xml version="1.0" encoding="UTF-8"?><svg id="Layer_1" xmlns="http://www.w3.org/2000/svg" viewBox="0 0 392.87 500"><defs><style>.cls-1{stroke-width:0px;}</style></defs><path class="cls-1" d="m196.43,0s-45.09,80.26-141.93,80.26c-15.98,0-33.37-2.18-52.21-7.28,0,0-8.9,57.69,8.37,137.82,8.87,41.14,24.64,88.2,52.05,136.41,12.03,21.15,26.3,42.52,43.22,63.71,24.31,30.46,54.08,60.55,90.5,89.07,36.43-28.52,66.19-58.61,90.5-89.07,16.91-21.19,31.19-42.56,43.22-63.72,27.41-48.21,43.18-95.27,52.05-136.41,17.27-80.14,8.37-137.82,8.37-137.82-18.83,5.09-36.23,7.28-52.21,7.28C241.51,80.26,196.43,0,196.43,0h0Z"/></svg>