<?xml version="1.0" encoding="UTF-8"?>
<svg id="Layer_1" data-name="Layer 1" xmlns="http://www.w3.org/2000/svg" xmlns:xlink="http://www.w3.org/1999/xlink" viewBox="0 0 730 1164">
  <defs>
    <style>
      .cls-1, .cls-2 {
        fill: #58c3c4;
      }

      .cls-3 {
        fill: none;
      }

      .cls-4 {
        fill: #4662ac;
      }

      .cls-5 {
        fill: #434867;
      }

      .cls-6 {
        clip-path: url(#clippath-1);
      }

      .cls-7 {
        clip-path: url(#clippath-3);
      }

      .cls-8 {
        clip-path: url(#clippath-4);
      }

      .cls-9 {
        clip-path: url(#clippath-2);
      }

      .cls-10 {
        clip-path: url(#clippath-5);
      }

      .cls-11, .cls-12, .cls-2 {
        opacity: .7;
      }

      .cls-13 {
        opacity: .65;
      }

      .cls-12, .cls-14 {
        fill: #f05c6a;
      }

      .cls-15 {
        clip-path: url(#clippath);
      }
    </style>
    <clipPath id="clippath">
      <rect class="cls-3" x="185" y="606.87" width="360" height="227.66"/>
    </clipPath>
    <clipPath id="clippath-1">
      <rect class="cls-4" x="185" y="294.53" width="140" height="335.67"/>
    </clipPath>
    <clipPath id="clippath-2">
      <rect class="cls-4" x="325" y="294.53" width="220" height="435.67"/>
    </clipPath>
    <clipPath id="clippath-3">
      <rect class="cls-3" x="325" y="153.54" width="80" height="140.99"/>
    </clipPath>
    <clipPath id="clippath-4">
      <rect class="cls-3" x="405" y="166.87" width="280" height="586.67"/>
    </clipPath>
    <clipPath id="clippath-5">
      <rect class="cls-3" x="45" y="53.54" width="360" height="600"/>
    </clipPath>
  </defs>
  <g>
    <path class="cls-5" d="M174.48,925.08v-38.59h12.22c3.68,0,6.61.99,8.8,2.98,2.19,1.99,3.28,4.65,3.28,8,0,2.24-.56,4.23-1.68,5.96-1.12,1.73-2.66,2.98-4.61,3.77-1.95.78-4.74,1.17-8.38,1.17h-4.08v16.72h-5.55ZM185.74,891.4h-5.71v12.05h6.04c2.24,0,3.97-.53,5.19-1.58,1.21-1.06,1.82-2.57,1.82-4.54,0-3.95-2.44-5.93-7.34-5.93"/>
    <path class="cls-5" d="M212.23,925.08v-38.54h9.66c3.9,0,6.99.96,9.28,2.9,2.29,1.93,3.43,4.54,3.43,7.83,0,2.24-.56,4.18-1.68,5.82-1.12,1.64-2.73,2.86-4.83,3.67,1.23.81,2.44,1.91,3.61,3.31,1.18,1.4,2.83,3.83,4.97,7.31,1.34,2.19,2.42,3.83,3.23,4.94l2.04,2.76h-6.56l-1.68-2.54c-.06-.09-.17-.25-.33-.47l-1.08-1.52-1.7-2.81-1.85-3.01c-1.14-1.58-2.18-2.84-3.13-3.78-.95-.94-1.8-1.61-2.57-2.03-.76-.41-2.05-.62-3.85-.62h-1.43v16.77h-5.52ZM219.4,891.23h-1.65v12.17h2.1c2.8,0,4.71-.24,5.75-.72,1.04-.48,1.85-1.2,2.43-2.16.58-.97.87-2.07.87-3.3s-.32-2.31-.96-3.3c-.64-.98-1.55-1.68-2.72-2.08-1.17-.4-3.1-.61-5.81-.61"/>
    <rect class="cls-5" x="254.71" y="886.54" width="5.52" height="38.54"/>
    <polygon class="cls-5" points="307.88 886.54 313.12 886.54 313.12 925.08 308.37 925.08 282.61 895.4 282.61 925.08 277.42 925.08 277.42 886.54 281.89 886.54 307.88 916.47 307.88 886.54"/>
    <path class="cls-5" d="M363.05,916.14v6.07c-4.05,2.21-8.72,3.31-14.02,3.31-4.3,0-7.95-.86-10.95-2.59-3-1.73-5.37-4.11-7.12-7.14-1.75-3.04-2.62-6.32-2.62-9.85,0-5.61,2-10.33,6-14.15,4-3.82,8.93-5.74,14.8-5.74,4.04,0,8.54,1.06,13.49,3.17v5.93c-4.51-2.57-8.91-3.86-13.21-3.86s-8.08,1.39-10.99,4.18c-2.91,2.78-4.37,6.28-4.37,10.47s1.44,7.71,4.31,10.43c2.87,2.72,6.54,4.08,11.01,4.08s9.23-1.44,13.68-4.31"/>
    <polygon class="cls-5" points="378.31 886.54 400.16 886.54 400.16 891.45 383.83 891.45 383.83 903.2 399.61 903.2 399.61 908.14 383.83 908.14 383.83 920.11 400.69 920.11 400.69 925.03 378.31 925.03 378.31 886.54"/>
    <polygon class="cls-5" points="411.75 886.49 443.95 886.49 443.95 891.4 430.51 891.4 430.51 925.08 424.97 925.08 424.97 891.4 411.75 891.4 411.75 886.49"/>
    <path class="cls-5" d="M472.88,885.99c5.95,0,10.91,1.89,14.87,5.65,3.96,3.77,5.94,8.5,5.94,14.18s-2,10.39-5.99,14.11c-4,3.73-9.04,5.59-15.12,5.59s-10.65-1.86-14.51-5.59c-3.87-3.72-5.8-8.39-5.8-14s1.95-10.52,5.85-14.29c3.9-3.77,8.82-5.65,14.78-5.65M473.09,891.23c-4.41,0-8.03,1.38-10.87,4.14-2.84,2.76-4.26,6.28-4.26,10.56s1.42,7.61,4.27,10.37c2.85,2.76,6.41,4.14,10.69,4.14s7.89-1.41,10.76-4.22c2.87-2.81,4.31-6.32,4.31-10.51s-1.44-7.52-4.31-10.3c-2.88-2.79-6.41-4.18-10.6-4.18"/>
    <polygon class="cls-5" points="539.57 886.54 544.81 886.54 544.81 925.08 540.07 925.08 514.3 895.4 514.3 925.08 509.11 925.08 509.11 886.54 513.58 886.54 539.57 916.47 539.57 886.54"/>
    <path class="cls-5" d="M236.06,1085.8h3.88l17.28,38.76h-5.65l-5.13-11.42h-16.44l-4.81,11.42h-5.67l16.55-38.76ZM244.17,1108.23l-6.22-13.96-5.77,13.96h11.99Z"/>
    <path class="cls-5" d="M270.08,1124.56v-38.54h9.66c3.9,0,6.99.96,9.28,2.9,2.29,1.93,3.43,4.54,3.43,7.83,0,2.24-.56,4.18-1.68,5.82-1.12,1.64-2.73,2.86-4.83,3.67,1.23.81,2.44,1.91,3.62,3.31,1.17,1.4,2.83,3.83,4.97,7.31,1.34,2.19,2.42,3.83,3.23,4.94l2.04,2.76h-6.56l-1.68-2.54c-.06-.09-.17-.25-.33-.47l-1.08-1.52-1.71-2.81-1.85-3.01c-1.14-1.58-2.18-2.84-3.13-3.78-.95-.94-1.8-1.61-2.57-2.03-.76-.41-2.05-.62-3.85-.62h-1.44v16.77h-5.52ZM277.25,1090.71h-1.66v12.17h2.1c2.79,0,4.71-.24,5.75-.72,1.04-.48,1.85-1.2,2.43-2.16.58-.97.87-2.07.87-3.3s-.32-2.31-.96-3.3c-.64-.98-1.55-1.68-2.72-2.08-1.17-.4-3.1-.61-5.81-.61"/>
    <path class="cls-5" d="M345.72,1115.62v6.07c-4.05,2.21-8.72,3.31-14.02,3.31-4.3,0-7.95-.86-10.95-2.59-3-1.73-5.37-4.11-7.12-7.14-1.75-3.03-2.62-6.32-2.62-9.85,0-5.61,2-10.33,6-14.15,4-3.82,8.93-5.74,14.8-5.74,4.04,0,8.54,1.06,13.49,3.17v5.93c-4.51-2.57-8.91-3.86-13.22-3.86s-8.08,1.39-10.99,4.18c-2.91,2.78-4.37,6.28-4.37,10.47s1.44,7.71,4.31,10.43c2.87,2.72,6.54,4.08,11.01,4.08s9.23-1.44,13.68-4.31"/>
    <polygon class="cls-5" points="388.16 1086.02 393.67 1086.02 393.67 1124.56 388.16 1124.56 388.16 1107.79 366.5 1107.79 366.5 1124.56 360.99 1124.56 360.99 1086.02 366.5 1086.02 366.5 1102.68 388.16 1102.68 388.16 1086.02"/>
    <rect class="cls-5" x="410.7" y="1086.02" width="5.52" height="38.54"/>
    <polygon class="cls-5" points="457.65 1086.02 463.14 1086.02 446.85 1124.72 445.6 1124.72 428.99 1086.02 434.55 1086.02 446.14 1113.08 457.65 1086.02"/>
    <polygon class="cls-5" points="475.84 1086.02 497.69 1086.02 497.69 1090.93 481.36 1090.93 481.36 1102.68 497.14 1102.68 497.14 1107.62 481.36 1107.62 481.36 1119.59 498.21 1119.59 498.21 1124.5 475.84 1124.5 475.84 1086.02"/>
    <path class="cls-5" d="M124.85,977.95c-3.38-4.1-9.29-6.15-15.68-6.15-1.33,0-2.65.36-3.14.84-.36.36-.85,1.08-.85,1.69-.12,2.41-.48,10.74-.48,27.02v24.86c0,8.32.72,9.41,9.05,11.34,1.69.36,2.65,1.09,2.65,2.41,0,1.21-1.81,1.93-3.26,1.93-3.62,0-6.15-.48-11.1-.48-4.34,0-12.55.72-16.53.72-1.69,0-3.74-.72-3.74-1.93,0-1.33.84-1.93,3.5-2.65,6.52-1.81,6.52-2.9,7.48-9.29.36-2.78,1.09-13.51,1.09-34.99,0-9.41,0-13.76-.36-16.53-.24-2.78-2.9-3.5-7.36-4.71-1.93-.48-3.26-1.69-3.26-2.9,0-1.45.96-1.81,3.02-1.81,2.77,0,10.25.36,11.82.36,4.1,0,9.17-.72,15.08-.72,10.5,0,17.74,3.26,21.84,7.48,3.5,3.86,5.91,10.14,5.91,15.93,0,7.96-3.74,13.39-6.88,16.41-4.95,4.83-12.67,6.64-16.77,6.64-.85,0-2.9.12-4.22-.84-.61-.36-1.93-1.57-1.93-2.17,0-.97.84-1.45,1.33-1.57.48,0,2.05-.24,2.66-.36,6.15-.12,14.24-5.31,14.24-17.13,0-5.43-1.69-10.5-4.1-13.39"/>
    <path class="cls-5" d="M204.23,999.18c-.97.96-6.27,4.46-7.36,4.95-.48.12-.61,1.21-.36,1.81,1.69,3.38,10.5,16.89,16.17,23.29,5.91,6.64,9.29,8.33,14.24,9.53,1.2.24,1.69,1.09,1.69,1.81,0,2.29-5.55,2.89-7,2.89-5.31,0-12.42-.72-21.35-12.31-4.34-5.67-11.34-16.04-13.63-19.3-2.77-3.86-5.79-3.98-9.89-3.98-.96,0-1.69,1.09-1.69,1.81,0,9.65.12,15.8.48,20.03.36,4.34,1.93,5.91,7.48,7.36,2.29.6,3.26,1.33,3.26,2.65,0,1.45-2.05,2.17-3.86,2.17-3.02,0-9.29-.49-13.51-.49-3.74,0-5.79.49-10.26.49-2.89,0-4.34-.85-4.34-2.05,0-1.09,1.21-1.81,3.38-2.53,4.71-1.57,6.27-2.17,6.52-8.21.12-4.34.12-8.32.12-30.04,0-14.84-.24-19.79-.48-22.32-.24-2.41-2.05-3.74-6.64-4.59-2.05-.36-3.5-1.33-3.5-2.41,0-1.81,2.29-2.29,4.83-2.29h10.61c4.59,0,9.53-.6,15.32-.6,10.62,0,15.08,2.41,17.98,4.58,5.67,4.35,7.48,9.53,7.48,14.84,0,4.46-2.17,9.65-5.67,12.91M181.55,971.68c-1.57,0-4.22.48-5.43.97-.73.24-1.33,1.33-1.33,2.41-.24,6.64,0,19.66.24,25.7,0,.72.36,1.21.96,1.45,2.65.72,4.95,1.09,7.24,1.09,1.81,0,8.57-2.17,11.22-4.59,1.93-1.93,3.98-6.03,3.98-10.86,0-8.69-4.58-16.17-16.89-16.17"/>
    <path class="cls-5" d="M315.59,1004.25c0,12.79-6.76,26.78-20.03,34.26-5.19,2.89-12.43,5.07-20.15,5.07-22.56,0-40.06-17.49-40.06-38.73,0-9.41,3.74-19.54,10.86-26.79,7.36-7.36,18.46-12.54,29.2-12.54,22.32,0,40.18,16.17,40.18,38.73M257.44,977.59c-5.19,5.43-8.93,13.75-8.93,25.82,0,16.89,11.22,34.99,29.68,34.99,5.43,0,10.86-1.81,14.84-5.55,4.83-4.58,9.29-13.39,9.29-28.11,0-17.13-11.22-34.14-29.08-34.14-5.79,0-12.19,3.5-15.81,7"/>
    <path class="cls-5" d="M373.27,968.42c.72.12,1.57,2.05,1.57,3.38,0,1.45.48,6.88.48,8.69,0,2.54-.96,4.1-2.53,4.1-.97,0-1.69-1.81-2.05-2.78-2.29-7.84-7.24-11.46-14.72-11.46s-11.94,5.79-11.94,11.82c0,7.12,3.02,10.74,13.63,16.89,11.94,6.88,19.67,12.55,19.67,23.89,0,7.84-5.43,13.63-9.29,16.04-4.22,2.78-11.46,4.58-16.53,4.58-5.55,0-14.84-2.05-17.61-4.22-.6-.48-1.09-1.09-1.69-2.41-1.45-3.01-1.93-7.84-1.93-10.74,0-2.65,1.09-3.86,2.05-3.86,1.69,0,2.17,1.33,2.9,3.02,4.58,10.25,12.55,13.27,18.7,13.27,5.07,0,12.19-3.86,12.19-12.43,0-5.91-3.38-9.65-16.29-17.74-7.12-4.34-16.05-11.1-16.05-22.68,0-7.96,4.83-13.39,9.65-16.41,3.74-2.29,9.17-3.86,14.84-3.86s10.74,1.81,14.96,2.89"/>
    <path class="cls-5" d="M474.25,1004.25c0,12.79-6.76,26.78-20.03,34.26-5.19,2.89-12.43,5.07-20.15,5.07-22.56,0-40.06-17.49-40.06-38.73,0-9.41,3.74-19.54,10.86-26.79,7.36-7.36,18.46-12.54,29.2-12.54,22.32,0,40.18,16.17,40.18,38.73M416.09,977.59c-5.19,5.43-8.93,13.75-8.93,25.82,0,16.89,11.22,34.99,29.68,34.99,5.43,0,10.86-1.81,14.84-5.55,4.83-4.58,9.29-13.39,9.29-28.11,0-17.13-11.22-34.14-29.08-34.14-5.79,0-12.19,3.5-15.81,7"/>
    <path class="cls-5" d="M554.24,976.74c10.14,8.44,12.43,19.66,12.43,27.14,0,18.46-11.46,28.47-17.98,32.09-8.57,4.58-18.94,6.39-27.87,6.39-4.95,0-15.93-.97-19.79-.97s-10.86.6-13.51.6c-.84,0-1.93-.72-1.93-1.57,0-1.33,1.45-2.77,4.46-3.62,3.5-.96,7.6-2.05,8.2-7.48.48-5.55.84-11.7.84-27.63s-.24-22.56-.72-24.74c-.24-1.32-.96-3.5-7.48-4.34-2.9-.36-4.34-1.57-4.34-2.65,0-1.33,1.81-2.29,4.95-2.29h9.89c4.22,0,12.67-.96,21.11-.96,11.58,0,22.8,2.41,31.73,10.01M512.49,973c-.6.12-1.93,1.69-2.05,2.41-.12,3.14-.36,12.55-.36,21.6v8.08c0,15.44.24,17.61.73,21.36.84,5.31,3.02,7.36,4.1,7.96,1.45.85,7.24,2.78,11.1,2.78,2.9,0,13.63-3.14,19.06-8.57,5.67-5.67,8.93-13.88,8.93-24.37,0-9.17-2.9-17.62-9.05-23.65-5.67-5.55-15.08-8.81-23.89-8.81-1.2,0-6.88.6-8.56,1.21"/>
    <path class="cls-5" d="M574.63,967.09c2.41,0,8.44.61,12.06.61,5.07,0,10.26-.48,12.31-.48,1.57,0,3.26.73,3.26,2.05,0,1.21-.84,1.93-3.74,2.65-3.26.84-2.77,2.05-1.45,4.71,3.98,8.08,12.91,23.89,14.12,25.34.6.72.84.6,1.45.12,1.09-.73,12.07-19.43,13.87-23.16,2.29-4.71,2.41-5.79-2.29-7.12-1.93-.6-2.89-1.57-2.89-2.41,0-1.33,1.33-2.05,3.98-2.05,3.74,0,7.6.36,9.05.36,3.38,0,7.36-.61,10.5-.61,2.17,0,3.38.97,3.38,2.05,0,.84-.84,2.17-3.26,2.77-4.58,1.21-7.96,2.77-11.82,7.84-5.19,6.88-15.68,23.53-17.25,27.14-.73,1.69-1.09,4.1-1.33,6.64-.36,4.34-.12,14.36-.12,18.1.24,2.05,1.09,3.62,9.05,5.43,1.81.36,2.65,1.69,2.65,2.53,0,1.21-1.45,2.17-3.98,2.17-1.93,0-7.6-.36-12.31-.36-4.94,0-12.43.49-14.72.49-2.17,0-3.38-.85-3.38-2.17,0-1.57,2.05-2.17,4.22-2.78,4.83-1.45,6.76-2.53,7.24-10.86.24-3.98.12-10.98.12-13.39,0-2.05-.6-3.62-2.29-7.12-3.26-6.75-12.79-22.92-16.05-27.26-1.69-2.29-4.22-4.46-10.5-6.64-2.77-.85-3.26-1.81-3.26-2.53,0-1.45,1.81-2.05,3.38-2.05"/>
  </g>
  <g>
    <polygon class="cls-12" points="325 606.87 405 593.54 405 294.53 325 294.53 325 606.87"/>
    <g class="cls-15">
      <polygon class="cls-4" points="325 606.87 185 630.21 185 834.53 545 834.53 545 730.21 325 693.54 325 606.87"/>
    </g>
    <g>
      <rect class="cls-4" x="185" y="294.53" width="140" height="335.67"/>
      <g class="cls-6">
        <polygon class="cls-2" points="325 294.53 185 294.53 185 630.21 325 606.87 325 294.53"/>
      </g>
    </g>
    <g class="cls-11">
      <g>
        <rect class="cls-4" x="325" y="294.53" width="220" height="435.67"/>
        <g class="cls-9">
          <polygon class="cls-12" points="405 294.53 405 593.54 325 606.87 325 693.54 545 730.21 545 294.53 405 294.53"/>
        </g>
      </g>
    </g>
    <g class="cls-13">
      <g class="cls-7">
        <polygon class="cls-14" points="325 294.53 405 294.53 405 166.87 325 153.54 325 294.53"/>
      </g>
    </g>
    <g class="cls-11">
      <g class="cls-8">
        <polygon class="cls-14" points="685 213.54 405 166.87 405 294.53 545 294.53 545 730.21 685 753.54 685 213.54"/>
      </g>
    </g>
    <g class="cls-11">
      <g class="cls-10">
        <polygon class="cls-1" points="325 294.53 325 153.54 405 166.87 405 53.54 45 113.54 45 653.54 185 630.21 185 294.53 325 294.53"/>
      </g>
    </g>
  </g>
</svg>